# Blender v2.80 (sub 75) OBJ File: ''
# www.blender.org
mtllib Chair.mtl
o Cube
v 1.000000 -0.139082 -1.000000
v 1.000000 0.139082 -1.000000
v 1.000000 -0.139082 1.000000
v 1.000000 0.139082 1.000000
v -1.000000 -0.139082 -1.000000
v -1.000000 0.139082 -1.000000
v -1.000000 -0.139082 1.000000
v -1.000000 0.139082 1.000000
v -0.745098 0.139082 -1.000000
v -0.745098 -0.139082 1.000000
v -0.745098 0.139082 1.000000
v -0.745098 -0.139082 -1.000000
v 0.762032 0.139082 1.000000
v 0.762032 -0.139082 -1.000000
v 0.762032 0.139082 -1.000000
v 0.762032 -0.139082 1.000000
v -1.000000 0.139082 0.764706
v 1.000000 -0.139082 0.764706
v -1.000000 -0.139082 0.764706
v 1.000000 0.139082 0.764706
v -0.745098 0.139082 0.764706
v -0.745098 -0.139082 0.764706
v 0.762032 -0.139082 0.764706
v 0.762032 0.139082 0.764706
v -1.000000 -0.139082 -0.784314
v 1.000000 0.139082 -0.784314
v -1.000000 0.139082 -0.784314
v 1.000000 -0.139082 -0.784314
v -0.745098 0.139082 -0.784314
v -0.745098 -0.139082 -0.784314
v 0.762032 -0.139082 -0.784314
v 0.762032 0.139082 -0.784314
v -0.745098 -1.844972 1.000000
v -1.000000 -1.844972 1.000000
v 1.000000 -1.844972 0.764706
v 1.000000 -1.844972 1.000000
v -1.000000 -1.844972 -0.784314
v -1.000000 -1.844972 -1.000000
v 0.762032 -1.844972 -1.000000
v 1.000000 -1.844972 -1.000000
v -0.745098 -1.844972 -1.000000
v -0.745098 -1.844972 0.764706
v 0.762032 -1.844972 1.000000
v 0.762032 -1.844972 0.764706
v -1.000000 -1.844972 0.764706
v 1.000000 -1.844972 -0.784314
v -0.745098 -1.844972 -0.784314
v 0.762032 -1.844972 -0.784314
v -0.745098 1.669532 -1.000000
v -1.000000 1.669532 -1.000000
v 1.000000 1.669532 -0.784314
v 1.000000 1.669532 -1.000000
v 0.762032 1.669532 -1.000000
v -1.000000 1.669532 -0.784314
v -0.745098 1.669532 -0.784314
v 0.762032 1.669532 -0.784314
v -0.745098 2.123213 -1.000000
v -1.000000 2.123213 -1.000000
v 1.000000 2.123213 -0.784314
v 1.000000 2.123213 -1.000000
v 0.762032 2.123213 -1.000000
v -1.000000 2.123213 -0.784314
v -0.745098 2.123213 -0.784314
v 0.762032 2.123213 -0.784314
vt 0.875000 0.750000
vt 0.875000 0.750000
vt 0.875000 0.720254
vt 0.875000 0.720254
vt 0.375000 0.468137
vt 0.375000 0.500000
vt 0.625000 0.500000
vt 0.625000 0.468137
vt 0.375000 0.723039
vt 0.375000 0.750000
vt 0.625000 0.750000
vt 0.625000 0.723039
vt 0.595254 0.970588
vt 0.595254 1.000000
vt 0.625000 1.000000
vt 0.625000 0.970588
vt 0.125000 0.720588
vt 0.125000 0.750000
vt 0.375000 0.750000
vt 0.375000 0.720588
vt 0.625000 0.720254
vt 0.625000 0.750000
vt 0.625000 0.500000
vt 0.625000 0.531863
vt 0.875000 0.531863
vt 0.875000 0.500000
vt 0.375000 0.970588
vt 0.375000 1.000000
vt 0.406863 1.000000
vt 0.406863 0.970588
vt 0.375000 0.279746
vt 0.625000 0.279746
vt 0.404746 0.220588
vt 0.404746 0.250000
vt 0.593137 0.250000
vt 0.593137 0.220588
vt 0.375000 0.526961
vt 0.375000 0.526961
vt 0.375000 0.500000
vt 0.375000 0.500000
vt 0.375000 0.250000
vt 0.625000 0.250000
vt 0.406863 0.776961
vt 0.595254 0.776961
vt 0.375000 0.026961
vt 0.375000 0.220588
vt 0.404746 0.026961
vt 0.593137 0.026961
vt 0.375000 0.776961
vt 0.125000 0.526961
vt 0.625000 0.776961
vt 0.375000 0.529412
vt 0.625000 0.529412
vt 0.625000 0.220588
vt 0.625000 0.026961
vt 0.404746 0.220588
vt 0.404746 0.250000
vt 0.625000 0.531863
vt 0.625000 0.720254
vt 0.125000 0.500000
vt 0.625000 0.500000
vt 0.404746 0.000000
vt 0.593137 0.000000
vt 0.625000 0.750000
vt 0.625000 0.723039
vt 0.595254 0.776961
vt 0.406863 0.776961
vt 0.593137 0.220588
vt 0.593137 0.250000
vt 0.625000 0.250000
vt 0.625000 0.220588
vt 0.375000 0.220588
vt 0.375000 0.250000
vt 0.593137 0.000000
vt 0.593137 0.026961
vt 0.625000 0.026961
vt 0.625000 0.000000
vt 0.375000 0.000000
vt 0.375000 0.026961
vt 0.404746 0.026961
vt 0.404746 0.000000
vt 0.625000 0.500000
vt 0.625000 0.468137
vt 0.375000 0.750000
vt 0.375000 0.720588
vt 0.875000 0.531863
vt 0.875000 0.500000
vt 0.625000 0.529412
vt 0.625000 0.279746
vt 0.625000 0.250000
vt 0.375000 0.723039
vt 0.375000 0.723039
vt 0.375000 0.750000
vt 0.375000 0.750000
vt 0.406863 0.776961
vt 0.375000 0.776961
vt 0.375000 0.776961
vt 0.125000 0.500000
vt 0.125000 0.500000
vt 0.125000 0.526961
vt 0.125000 0.526961
vt 0.625000 0.750000
vt 0.625000 0.776961
vt 0.595254 0.750000
vt 0.595254 0.776961
vt 0.625000 0.776961
vt 0.625000 0.750000
vt 0.406863 0.750000
vt 0.625000 0.531863
vt 0.625000 0.720254
vt 0.625000 0.500000
vn 0.0000 0.0000 -1.0000
vn 0.0000 0.0000 1.0000
vn -1.0000 0.0000 0.0000
vn 0.0000 1.0000 0.0000
vn 1.0000 0.0000 0.0000
vn 0.0000 -1.0000 0.0000
usemtl Material
s off
f 1/1/1 40/2/1 39/3/1 14/4/1
f 11/5/2 8/6/2 7/7/2 10/8/2
f 27/9/3 6/10/3 5/11/3 25/12/3
f 24/13/4 13/14/4 4/15/4 20/16/4
f 20/17/5 4/18/5 3/19/5 18/20/5
f 15/21/1 2/22/1 1/1/1 14/4/1
f 6/23/1 9/24/1 12/25/1 5/26/1
f 17/27/4 8/28/4 11/29/4 21/30/4
f 13/31/2 11/5/2 10/8/2 16/32/2
f 23/33/6 16/34/6 10/35/6 22/36/6
f 28/37/5 46/38/5 40/39/5 1/40/5
f 4/41/2 13/31/2 16/32/2 3/42/2
f 9/24/1 15/21/1 14/4/1 12/25/1
f 21/30/4 11/29/4 13/14/4 24/13/4
f 29/43/4 21/30/4 24/13/4 32/44/4
f 28/45/6 18/46/6 23/33/6 31/47/6
f 31/47/6 23/33/6 22/36/6 30/48/6
f 27/49/4 17/27/4 21/30/4 29/43/4
f 26/50/5 20/17/5 18/20/5 28/37/5
f 32/44/4 24/13/4 20/16/4 26/51/4
f 8/6/3 17/52/3 19/53/3 7/7/3
f 30/48/6 22/36/6 19/54/6 25/55/6
f 23/33/3 44/56/3 43/57/3 16/34/3
f 9/24/1 49/58/1 53/59/1 15/21/1
f 2/60/5 26/50/5 28/37/5 1/40/5
f 6/23/1 50/61/1 49/58/1 9/24/1
f 14/62/6 31/47/6 30/48/6 12/63/6
f 5/11/3 38/64/3 37/65/3 25/12/3
f 32/44/2 56/66/2 55/67/2 29/43/2
f 17/52/3 27/9/3 25/12/3 19/53/3
f 42/68/6 33/69/6 34/70/6 45/71/6
f 35/72/6 36/73/6 43/57/6 44/56/6
f 41/74/6 47/75/6 37/76/6 38/77/6
f 40/78/6 46/79/6 48/80/6 39/81/6
f 10/35/5 33/69/5 42/68/5 22/36/5
f 30/48/5 47/75/5 41/74/5 12/63/5
f 31/47/2 48/80/2 46/79/2 28/45/2
f 14/62/3 39/81/3 48/80/3 31/47/3
f 7/7/2 34/82/2 33/83/2 10/8/2
f 22/36/1 42/68/1 45/71/1 19/54/1
f 3/19/5 36/84/5 35/85/5 18/20/5
f 18/46/1 35/72/1 44/56/1 23/33/1
f 25/55/2 37/76/2 47/75/2 30/48/2
f 12/25/1 41/86/1 38/87/1 5/26/1
f 19/53/3 45/88/3 34/82/3 7/7/3
f 16/32/2 43/89/2 36/90/2 3/42/2
f 54/91/3 62/92/3 58/93/3 50/94/3
f 55/67/2 63/95/2 62/96/2 54/97/2
f 52/98/5 60/99/5 59/100/5 51/101/5
f 27/9/3 54/91/3 50/94/3 6/10/3
f 29/43/2 55/67/2 54/97/2 27/49/2
f 2/60/5 52/98/5 51/101/5 26/50/5
f 15/21/1 53/59/1 52/102/1 2/22/1
f 26/51/2 51/103/2 56/66/2 32/44/2
f 61/104/4 64/105/4 59/106/4 60/107/4
f 58/93/4 62/96/4 63/95/4 57/108/4
f 57/108/4 63/95/4 64/105/4 61/104/4
f 49/58/1 57/109/1 61/110/1 53/59/1
f 50/61/1 58/111/1 57/109/1 49/58/1
f 56/66/2 64/105/2 63/95/2 55/67/2
f 51/103/2 59/106/2 64/105/2 56/66/2
f 53/59/1 61/110/1 60/107/1 52/102/1
